{"title":"End Of Days-720p MP4 AAC x264 BRRip 1999-CC","uid":7181140,"size":2308718324,"categoryP":"video","categoryS":"hd___movies","magnet":"?xt=urn:btih:e820314ed1af7310c619c2de498bd8ffdfc41d38&amp;dn=End+Of+Days-720p+MP4+AAC+x264+BRRip+1999-CC&amp;tr=udp%3A%2F%2Ftracker.openbittorrent.com%3A80&amp;tr=udp%3A%2F%2Fopen.demonii.com%3A1337&amp;tr=udp%3A%2F%2Ftracker.coppersurfer.tk%3A6969&amp;tr=udp%3A%2F%2Fexodus.desync.com%3A6969","seeders":0,"leechers":1,"uploader":"Caveman44","files":-1,"time":1334269279,"description":"Source: End.Of.Days.1999.1080p.BluRay.x264-IGUANA\n\nSubs: English hardcoded when needed.\n\nSubs: Arabic, Dutch, English, Finnish, Hungarian, Romanian, Servian, Slovenian and Vietnamese.\n\nSample and Screens included.\n\nGeneral\nComplete name                    : End Of Days-720p MP4 AAC x264 BRRip 1999-CC.mp4\nFormat                           : MPEG-4\nFormat profile                   : Base Media\nCodec ID                         : isom\nFile size                        : 2.06 GiB\nDuration                         : 2h 2mn\nOverall bit rate                 : 2 410 Kbps\nEncoded date                     : UTC 2012-04-11 04:51:25\n\nVideo\nID                               : 1\nFormat                           : AVC\nFormat/Info                      : Advanced Video Codec\nFormat profile                   : &lt;a class=&quot;__cf_email__&quot; href=&quot;/cdn-cgi/l/email-protection&quot; data-cfemail=&quot;1d55747a755d512e332c&quot;&gt;[email&amp;#160;protected]&lt;/a&gt;&lt;script cf-hash='f9e31' type=&quot;text/javascript&quot;&gt;\n/* &lt;![CDATA[ */!function(){try{var t=&quot;currentScript&quot;in document?document.currentScript:function(){for(var t=document.getElementsByTagName(&quot;script&quot;),e=t.length;e--;)if(t[e].getAttribute(&quot;cf-hash&quot;))return t[e]}();if(t&amp;&amp;t.previousSibling){var e,r,n,i,c=t.previousSibling,a=c.getAttribute(&quot;data-cfemail&quot;);if(a){for(e=&quot;&quot;,r=parseInt(a.substr(0,2),16),n=2;a.length-n;n+=2)i=parseInt(a.substr(n,2),16)^r,e+=String.fromCharCode(i);e=document.createTextNode(e),c.parentNode.replaceChild(e,c)}}}catch(u){}}();/* ]]&gt; */&lt;/script&gt;\nFormat settings, CABAC           : Yes\nFormat settings, ReFrames        : 5 frames\nCodec ID                         : avc1\nCodec ID/Info                    : Advanced Video Coding\nDuration                         : 2h 2mn\nBit rate mode                    : Variable\nBit rate                         : 2 022 Kbps\nNominal bit rate                 : 2 047 Kbps\nMaximum bit rate                 : 12.2 Mbps\nWidth                            : 1 280 pixels\nHeight                           : 544 pixels\nDisplay aspect ratio             : 2.35:1\nFrame rate mode                  : Variable\nFrame rate                       : 23.976 fps\nMinimum frame rate               : 19.048 fps\nMaximum frame rate               : 24.390 fps\nResolution                       : 24 bits\nColorimetry                      : 4:2:0\nScan type                        : Progressive\nBits/(Pixel*Frame)               : 0.121\nStream size                      : 1.73 GiB (84%)\nWriting library                  : x264 core 112\n\nAudio\nID                               : 2\nFormat                           : AAC\nFormat/Info                      : Advanced Audio Codec\nFormat version                   : Version 4\nFormat profile                   : LC\nFormat settings, SBR             : No\nCodec ID                         : 40\nDuration                         : 2h 2mn\nBit rate mode                    : Variable\nBit rate                         : 384 Kbps\nMaximum bit rate                 : 604 Kbps\nChannel(s)                       : 6 channels\nChannel positions                : Front: L C R, Rear: L R, LFE\nSampling rate                    : 48.0 KHz\nResolution                       : 16 bits\nStream size                      : 336 MiB (16%)\nLanguage                         : English","torrent":{"xt":"urn:btih:e820314ed1af7310c619c2de498bd8ffdfc41d38","amp;dn":"End+Of+Days-720p+MP4+AAC+x264+BRRip+1999-CC","amp;tr":["udp%3A%2F%2Ftracker.openbittorrent.com%3A80","udp%3A%2F%2Fopen.demonii.com%3A1337","udp%3A%2F%2Ftracker.coppersurfer.tk%3A6969","udp%3A%2F%2Fexodus.desync.com%3A6969"],"infoHash":"e820314ed1af7310c619c2de498bd8ffdfc41d38","infoHashBuffer":{"type":"Buffer","data":[232,32,49,78,209,175,115,16,198,25,194,222,73,139,216,255,223,196,29,56]},"announce":[],"urlList":[]}}